# Blender v2.70 (sub 0) OBJ File: ''
# www.blender.org
o Cone
v 0.000000 -1.000000 -1.000000
v 0.000000 1.000000 0.000000
v 0.951057 -1.000000 -0.309017
v 0.587785 -1.000000 0.809017
v -0.587785 -1.000000 0.809017
v -0.951056 -1.000000 -0.309017
vt 0.183945 0.327375
vt 0.384698 0.655858
vt 0.045068 0.474600
vt 0.000062 0.671924
vt 0.061367 0.864807
vt 0.378309 0.270940
vt 0.212038 0.999938
vt 0.384698 0.068649
vt 0.194282 0.000062
vt 0.070210 0.159963
vn -0.881657 0.374991 0.286467
vn 0.544894 0.374991 -0.749982
vn -0.000000 0.374991 0.927028
vn -0.544894 0.374991 -0.749982
vn 0.881656 0.374991 0.286468
vn 0.000000 -1.000000 0.000000
s off
f 5/1/1 2/2/1 6/3/1
f 1/4/2 2/2/2 3/5/2
f 4/6/3 2/2/3 5/1/3
f 6/3/4 2/2/4 1/4/4
f 3/5/5 2/2/5 4/7/5
f 3/8/6 4/6/6 5/1/6
f 3/8/6 5/1/6 1/9/6
f 5/1/6 6/10/6 1/9/6
